<?xml version="1.0" encoding="UTF-8" standalone="no"?>
<svg width="500px" height="414px" viewBox="0 0 500 414" version="1.1" xmlns="http://www.w3.org/2000/svg" xmlns:xlink="http://www.w3.org/1999/xlink" xmlns:sketch="http://www.bohemiancoding.com/sketch/ns">
    <!-- Generator: sketchtool 3.5.1 (25234) - http://www.bohemiancoding.com/sketch -->
    <title>PHENIX</title>
    <desc>Created with sketchtool.</desc>
    <defs></defs>
    <g id="Welcome" stroke="none" stroke-width="1" fill="none" fill-rule="evenodd" sketch:type="MSPage">
        <g id="Desktop-HD" sketch:type="MSArtboardGroup" transform="translate(-470.000000, -305.000000)" fill="#FFFFFF" opacity="0.200000018">
            <path d="M712.284288,696.267472 C712.18189,695.056022 711.965541,693.904435 712.010176,692.763351 C712.178214,688.448445 711.084916,684.75213 708.671992,680.955517 C706.649232,677.773294 706.315782,673.517202 705.244538,669.772576 C702.41572,673.479918 700.768421,678.025876 701.628041,683.308577 C701.850692,684.676513 702.155786,686.122166 702.819012,687.311562 C707.190631,695.150018 704.445307,701.970268 699.991244,708.608827 C698.723081,710.499256 697.549965,710.254551 696.337989,708.606726 C694.420253,705.998459 693.853649,703.025233 694.221233,699.893946 C694.494295,697.567142 695.020465,695.27027 695.493597,692.624194 C691.426023,695.855778 688.162406,699.392982 686.242045,704.00458 C684.13369,709.066731 685.820374,713.319147 689.723061,717.052746 C689.014675,717.397749 688.70958,717.684464 688.426016,717.66451 C677.144352,716.870004 666.554795,714.365185 659.012506,704.986554 C654.885068,699.854562 652.926373,693.915463 652.971533,686.435137 C654.182459,687.497979 654.860388,688.012596 655.44327,688.618584 C657.437148,690.69333 659.232006,692.995453 661.414927,694.842298 C663.765361,696.830925 665.535539,696.120964 665.942506,693.059518 C666.156755,691.451077 665.711979,689.673548 665.23307,688.071409 C664.161301,684.48642 662.579117,681.031659 661.766757,677.397834 C660.834145,673.227336 661.634952,669.244831 663.557414,665.232919 C665.922552,660.299423 667.45485,654.966311 669.34843,649.807013 C669.630944,649.037188 669.923436,648.271564 670.211201,647.50384 C670.44698,647.513292 670.682233,647.522744 670.918012,647.532196 C671.046666,648.104576 671.206828,648.671705 671.299774,649.249862 C672.168321,654.674344 672.843099,660.139786 674.000988,665.50178 C674.330237,667.025676 676.132447,669.408668 677.121247,669.342503 C678.687678,669.237479 680.774502,667.712007 681.499692,666.229595 C682.850299,663.467468 683.753504,660.35561 684.176225,657.297315 C685.178678,650.048043 684.092731,642.880164 682.784134,635.660298 C678.223997,636.824488 673.971056,638.239159 669.603113,638.942819 C664.10984,639.82817 658.530972,640.443085 652.973634,640.586968 C648.531649,640.701969 644.405787,640.939323 641.311783,644.615683 C641.211486,644.734885 641.009315,644.796324 640.844427,644.825731 C640.68269,644.854613 640.507301,644.808402 639.893436,644.760616 C639.684439,639.184899 641.918296,634.373231 645.861417,630.965731 C649.695314,627.652228 654.51801,625.483485 659.369062,622.530214 C658.205923,622.129548 657.530094,621.747261 656.823284,621.676895 C652.150772,621.211639 647.587485,620.625081 642.932827,622.655192 C639.893961,623.980594 636.319474,624.42642 632.951884,624.591833 C613.998751,625.521294 595.548158,623.293212 578.280659,614.809909 C563.39405,607.497098 552.139693,596.531555 545.370904,581.236929 C544.739711,579.81123 544.501307,578.212242 544.080686,576.693597 L544.80115,576.230967 C545.456499,576.679944 546.161734,577.070633 546.75932,577.5863 C554.298458,584.085177 562.762857,586.845204 572.746426,584.659132 C580.476183,582.966673 588.249524,583.986979 595.969829,585.179525 C596.822623,585.31133 597.676467,585.436834 598.831729,585.118087 C597.885464,584.322531 596.981734,583.468687 595.986107,582.740346 C587.567919,576.577546 577.819604,573.542356 567.961538,570.672579 C557.649245,567.669946 547.259233,564.812772 537.218952,561.050292 C531.583896,558.938787 526.532773,555.21254 521.340918,552.016139 C519.950927,551.160194 519.008338,549.577484 517.318504,547.737991 C519.089206,547.483308 520.041248,547.295316 521.002216,547.216548 C525.260934,546.865768 529.585817,546.891499 533.764717,546.120624 C538.054942,545.328744 538.655678,542.963081 535.350052,540.045518 C532.699249,537.705586 529.737051,535.474354 526.533823,534.04603 C512.77097,527.91001 499.78792,520.631856 488.952082,509.97876 C480.900427,502.062586 474.642055,492.983797 471.621043,481.969944 C470.808159,479.008271 470.525644,475.901665 470,472.861224 C470.301944,472.718917 470.603362,472.576084 470.904781,472.433777 C471.566956,472.9757 472.33153,473.430979 472.874503,474.0732 C478.456522,480.67605 485.04887,486.0643 493.239156,488.864236 C501.331246,491.63109 509.6024,494.021958 517.956524,495.83362 C527.912262,497.992911 537.170116,501.656669 546.01365,506.563384 C546.390686,506.772906 546.785051,506.950397 547.599511,506.85325 C547.0035,506.006757 546.537194,505.019008 545.791525,504.336878 C539.349361,498.442938 533.042677,492.380435 526.327976,486.811545 C519.603823,481.235302 512.106169,476.566466 505.569484,470.795405 C492.339627,459.1157 483.205176,444.712727 479.001071,427.410045 C478.629286,425.880372 478.574149,424.274032 478.664994,422.624107 C481.525319,426.884925 485.102957,430.288749 489.573823,432.314134 C492.654699,433.710427 496.205556,434.432466 499.602028,434.674546 C503.555126,434.956535 505.200325,432.782541 504.49719,428.824716 C503.525194,423.349822 500.53779,418.792311 497.362394,414.367656 C482.800834,394.079145 473.883783,371.690682 472.524774,346.598904 C472.004381,336.980818 472.098377,327.312321 474.643105,317.921612 C475.54421,314.597606 477.241396,311.483123 478.660268,308.310877 C478.967988,307.624546 479.536167,306.925613 480.171562,306.543326 C481.24438,305.897954 482.466858,305.501489 483.626322,305 C483.737122,306.132682 484.061121,307.291096 483.926165,308.393321 C482.714715,318.289195 486.426783,326.773548 492.237229,334.198211 C499.506981,343.487572 507.239363,352.448208 515.21015,361.149436 C573.194878,424.450472 631.289356,487.651211 689.352852,550.87978 C692.719392,554.545638 696.123215,558.176839 699.921403,562.267518 C700.789426,558.296566 701.575529,554.787718 702.321199,551.269944 C703.681258,544.854561 704.980928,538.42605 706.371969,532.017494 C707.891665,525.017653 703.340456,519.245541 696.164175,518.965127 C694.928569,518.916816 692.846471,518.349162 692.686834,517.664407 C692.378064,516.339005 692.783456,514.514216 693.556957,513.330071 C696.017666,509.562865 703.144061,507.659833 708.103813,509.767662 C710.990394,510.994866 713.393865,513.333222 716.085627,515.06034 C717.074952,515.694684 718.285877,516.441929 719.367098,516.400444 C726.093877,516.14156 731.633361,517.975277 735.753972,523.771019 C739.906616,529.611397 744.544995,535.105195 748.959673,540.75968 C749.649155,541.642931 750.279823,542.571867 750.937273,543.479273 C750.819121,543.751285 750.700969,544.022772 750.582817,544.294784 C749.807216,544.038525 748.957048,543.908821 748.270717,543.502379 C746.407593,542.398053 744.74454,540.832147 742.763265,540.078601 C739.491771,538.833543 736.93444,541.385097 737.74785,544.750062 C739.734902,552.970805 741.707775,561.19575 743.771494,569.771474 C744.497209,569.107723 745.009726,568.710208 745.437698,568.23655 C807.397054,499.686946 869.360611,431.141018 931.292136,362.566733 C940.248047,352.650379 948.195728,342.022489 953.13185,329.450082 C955.783177,322.695997 957.417349,315.762846 956.166514,308.417477 C956.064641,307.81779 956.204323,306.837918 956.591336,306.58481 C957.008281,306.312273 958.137287,306.443553 958.45761,306.820589 C960.34804,309.047095 962.941079,311.144947 963.717205,313.75584 C965.496835,319.740625 967.009704,325.945435 967.49754,332.150245 C969.955623,363.431605 960.644732,391.297588 942.480854,416.578408 C939.677767,420.48057 937.653432,425.085341 936.005082,429.63235 C934.494314,433.798122 936.606344,436.140154 941.07721,436.25673 C948.648906,436.454175 954.09912,432.372948 959.017387,427.261436 C959.553534,426.704284 960.021941,426.082543 960.521329,425.490734 C960.783364,425.516989 961.044873,425.543245 961.306383,425.568976 C961.181404,427.244632 961.329488,428.99643 960.889438,430.584391 C955.634569,449.550126 944.784553,464.770711 929.413259,476.834802 C921.640443,482.935114 913.507394,488.581722 905.83015,494.795459 C901.640748,498.186155 898.048406,502.318319 894.222912,506.152215 C893.637404,506.739824 893.24724,507.522252 893.052421,508.552011 C893.86163,508.134016 894.687642,507.745952 895.477947,507.294875 C905.235189,501.723884 915.841025,498.585771 926.728324,496.139765 C932.437947,494.857423 938.090331,493.262636 943.686003,491.541295 C953.036278,488.664691 960.820647,483.338405 967.149385,475.875409 C967.777428,475.134991 968.538851,474.507473 969.23831,473.827969 C969.47829,473.918815 969.717744,474.00966 969.957199,474.100506 C969.957199,475.072502 970.063273,476.058151 969.941445,477.014918 C968.264214,490.188062 961.632482,500.807025 952.622484,510.125793 C941.920552,521.194259 928.830902,528.643602 914.957249,534.976541 C911.290341,536.650621 907.846608,539.078248 904.772559,541.710671 C901.71899,544.325241 902.424751,546.799603 906.384151,547.51219 C910.654946,548.28149 915.061223,548.28464 919.403434,548.681631 C920.294562,548.763549 921.161534,549.110128 922.039534,549.334354 C921.633091,550.15459 921.403089,551.148116 920.7929,551.766707 C915.452436,557.185938 908.801275,560.621269 901.803535,563.138691 C893.183701,566.239521 884.378499,568.875095 875.543892,571.31585 C866.337499,573.860053 857.154212,576.383251 848.832646,581.221701 C846.23173,582.73352 843.85714,584.634452 841.657415,586.768537 C846.306822,586.311158 850.950452,585.564963 855.606686,585.474643 C860.573789,585.378021 865.627538,585.445236 870.509047,586.252869 C879.27644,587.702724 886.483178,584.84555 893.048745,579.451524 C893.453612,579.119123 893.765008,578.640739 894.210834,578.399185 C894.676615,578.147127 895.253196,578.099866 895.781466,577.963335 C895.857083,578.523638 896.164278,579.184238 895.972084,579.629014 C894.554787,582.91311 893.306053,586.312208 891.506469,589.383106 C882.409302,604.909835 868.712614,614.771576 851.912471,620.409257 C835.682082,625.855795 818.981712,627.627022 801.954717,625.343803 C799.74554,625.047636 797.623533,624.078266 795.468968,623.396661 C790.730291,621.89797 786.093488,622.700878 781.454583,623.50431 C781.35376,623.869268 781.252937,624.234226 781.152115,624.599709 C783.917393,625.945065 786.626484,627.426427 789.460553,628.606895 C794.824647,630.841278 800.581005,639.227959 800.489634,644.99902 C800.482283,645.462701 800.212896,645.922705 799.963465,646.701982 C799.239325,646.089693 798.713156,645.685877 798.233722,645.232173 C795.530407,642.675367 792.371814,641.615151 788.639791,641.999014 C779.577807,642.9311 770.915438,640.81907 762.311883,638.361512 C760.816343,637.93459 759.332356,637.467759 757.534872,636.926886 C755.978418,646.347002 754.553244,655.57965 757.377336,664.823326 C757.890903,666.505283 759.002056,668.149957 760.23031,669.437024 C762.591246,671.910862 764.700651,671.610493 765.737236,668.383635 C767.036907,664.337065 767.741617,660.087275 768.531921,655.893146 C768.948341,653.683444 769.000328,651.404426 769.764902,648.919036 C770.142987,649.628473 770.617695,650.303251 770.883406,651.052071 C772.521253,655.661569 773.442837,660.678034 775.858912,664.827527 C780.745147,673.219984 779.123578,680.984399 775.405208,689.031853 C774.589698,690.796779 774.319787,693.040614 774.519332,694.990382 C774.771914,697.453717 776.516361,698.139523 778.4467,696.580968 C780.601264,694.841773 782.406625,692.668304 784.347466,690.667599 C785.099437,689.891998 785.805722,689.072287 786.916875,688.461048 C787.466149,694.815517 785.679168,700.467902 782.003333,705.501696 C776.540516,712.982021 768.852244,716.552832 759.79236,718.10456 C760.457161,713.456203 761.060523,709.236344 761.663885,705.017011 C761.371919,704.917763 761.080478,704.81799 760.789037,704.718743 C758.583535,706.859129 756.463104,709.096663 754.153629,711.117847 C750.276147,714.511693 748.238159,714.989027 745.925534,713.24353 C752.946904,702.207097 751.195106,690.618238 747.69256,678.892323 C746.947941,681.887604 746.341953,684.92647 745.414067,687.863462 C744.65632,690.262207 743.755215,692.683007 742.480226,694.834421 C740.879137,697.535635 738.395847,697.418009 737.103004,694.528277 C736.051715,692.178893 735.550226,689.54857 735.059764,686.993864 C734.699532,685.117613 734.490535,683.136863 734.672751,681.246958 C735.074468,677.075935 733.419291,673.778711 730.879289,670.720941 C729.258771,668.770123 727.792638,666.684874 726.104379,664.796545 C723.02718,661.355963 721.568923,657.352453 721.747464,652.790741 C721.982192,646.786527 722.3482,640.787563 722.251578,634.517113 C720.604804,637.626345 719.126593,640.8406 717.278698,643.825379 C711.96029,652.416856 713.300919,660.665956 718.331037,668.746492 C720.738184,672.612421 721.706504,676.827554 720.265577,681.041112 C718.614077,685.869059 716.199053,690.437072 714.084397,695.103808 C713.915309,695.477167 713.516743,695.756006 713.192745,696.042721 C713.081944,696.141443 712.872947,696.129366 712.284288,696.267472" id="PHENIX" sketch:type="MSShapeGroup"></path>
        </g>
    </g>
</svg>